<svg width="204" height="20" viewBox="0 0 204 20" fill="none" xmlns="http://www.w3.org/2000/svg">
<path d="M0.525 19V17.475H1.85C2 17.475 2.15 17.4333 2.3 17.35C2.45 17.25 2.575 17.1083 2.675 16.925C2.775 16.7417 2.825 16.525 2.825 16.275V3.95C2.825 3.66667 2.76667 3.43333 2.65 3.25C2.55 3.05 2.40833 2.90833 2.225 2.825C2.05833 2.725 1.86667 2.675 1.65 2.675H0.525V1.15H10.15V2.675H8.925C8.625 2.675 8.4 2.725 8.25 2.825C8.1 2.90833 7.99167 3.04167 7.925 3.225C7.875 3.40833 7.85 3.63333 7.85 3.9V17.275H12.3C12.6 17.275 12.8667 17.2167 13.1 17.1C13.35 16.9667 13.5667 16.7417 13.75 16.425C13.95 16.1083 14.125 15.6833 14.275 15.15L14.8 13.275H16.275L16.1 19H0.525ZM17.4439 19V17.475H18.7189C18.9523 17.475 19.1439 17.425 19.2939 17.325C19.4439 17.2083 19.5523 17.0583 19.6189 16.875C19.7023 16.6917 19.7439 16.4833 19.7439 16.25V4.025C19.7439 3.625 19.6939 3.33333 19.5939 3.15C19.4939 2.95 19.3606 2.825 19.1939 2.775C19.0273 2.70833 18.8523 2.675 18.6689 2.675H17.4439V1.15H32.2689L32.3439 5.925H30.2689L30.1439 4.675C30.1106 4.225 30.0356 3.875 29.9189 3.625C29.8023 3.35833 29.6273 3.16667 29.3939 3.05C29.1773 2.93333 28.8689 2.875 28.4689 2.875H24.7189V8.825H30.6189V10.525H24.7189V17.275H29.1939C29.5606 17.275 29.8606 17.2 30.0939 17.05C30.3273 16.9 30.5106 16.6917 30.6439 16.425C30.7939 16.1583 30.8939 15.8417 30.9439 15.475L31.1439 14.225H33.1939L33.0189 19H17.4439ZM37.4641 19V17.475H38.2641C38.5807 17.475 38.8557 17.4417 39.0891 17.375C39.3224 17.2917 39.4974 17.1417 39.6141 16.925C39.7474 16.6917 39.8141 16.3417 39.8141 15.875V2.875H38.1141C37.6141 2.875 37.2224 2.93333 36.9391 3.05C36.6557 3.15 36.4474 3.31667 36.3141 3.55C36.1807 3.78333 36.0891 4.08333 36.0391 4.45L35.8141 6.35H33.8641L33.9891 1.15H50.6641L50.7891 6.35H48.8391L48.6391 4.45C48.6057 4.08333 48.5141 3.78333 48.3641 3.55C48.2307 3.31667 48.0224 3.15 47.7391 3.05C47.4557 2.93333 47.0641 2.875 46.5641 2.875H44.8641V15.975C44.8641 16.4083 44.9307 16.7333 45.0641 16.95C45.1974 17.1667 45.3807 17.3083 45.6141 17.375C45.8474 17.4417 46.1141 17.475 46.4141 17.475H47.2141V19H37.4641ZM57.9301 19.25C56.5801 19.25 55.4801 19.1333 54.6301 18.9C53.7801 18.6667 53.1217 18.3667 52.6551 18C52.1884 17.6333 51.8634 17.25 51.6801 16.85C51.5134 16.45 51.4301 16.0917 51.4301 15.775C51.4301 15.025 51.5884 14.45 51.9051 14.05C52.2384 13.65 52.6551 13.375 53.1551 13.225C53.6551 13.0583 54.1884 12.975 54.7551 12.975C54.7551 14.1083 54.9384 15.0083 55.3051 15.675C55.6884 16.3417 56.1634 16.825 56.7301 17.125C57.3134 17.4083 57.8967 17.55 58.4801 17.55C59.3634 17.55 60.0384 17.3 60.5051 16.8C60.9884 16.2833 61.2301 15.7417 61.2301 15.175C61.2301 14.6417 61.0467 14.1833 60.6801 13.8C60.3301 13.4167 59.8217 13.0583 59.1551 12.725C58.5051 12.3917 57.7301 12.0417 56.8301 11.675C55.8801 11.2917 55.0884 10.8917 54.4551 10.475C53.8384 10.0417 53.3467 9.59167 52.9801 9.125C52.6134 8.65833 52.3551 8.16667 52.2051 7.65C52.0551 7.13333 51.9801 6.6 51.9801 6.05C51.9801 4.98333 52.2717 4.06667 52.8551 3.3C53.4551 2.53333 54.2634 1.94167 55.2801 1.525C56.2967 1.10833 57.4384 0.899999 58.7051 0.899999C60.0551 0.899999 61.1551 1.05833 62.0051 1.375C62.8717 1.69167 63.5051 2.09167 63.9051 2.575C64.3051 3.04167 64.5051 3.53333 64.5051 4.05C64.5051 4.66667 64.2301 5.19167 63.6801 5.625C63.1467 6.05833 62.2134 6.275 60.8801 6.275C60.8801 5.70833 60.7717 5.15 60.5551 4.6C60.3384 4.03333 60.0217 3.56667 59.6051 3.2C59.2051 2.81667 58.7051 2.625 58.1051 2.625C57.7051 2.625 57.3384 2.69167 57.0051 2.825C56.6717 2.95833 56.4051 3.16667 56.2051 3.45C56.0051 3.71667 55.9051 4.075 55.9051 4.525C55.9051 4.85833 56.0134 5.2 56.2301 5.55C56.4467 5.9 56.8717 6.28333 57.5051 6.7C58.1551 7.1 59.0967 7.55 60.3301 8.05C61.5967 8.55 62.5801 9.09167 63.2801 9.675C63.9967 10.2417 64.4967 10.8583 64.7801 11.525C65.0634 12.175 65.2051 12.9 65.2051 13.7C65.2051 14.7833 64.9051 15.7417 64.3051 16.575C63.7217 17.4083 62.8801 18.0667 61.7801 18.55C60.6967 19.0167 59.4134 19.25 57.9301 19.25ZM72.9859 19V17.475H74.2609C74.4943 17.475 74.6859 17.425 74.8359 17.325C74.9859 17.2083 75.0943 17.0583 75.1609 16.875C75.2443 16.6917 75.2859 16.4833 75.2859 16.25V4.025C75.2859 3.625 75.2359 3.33333 75.1359 3.15C75.0359 2.95 74.9026 2.825 74.7359 2.775C74.5693 2.70833 74.3943 2.675 74.2109 2.675H72.9859V1.15H87.8109L87.8859 5.925H85.8109L85.6859 4.675C85.6526 4.225 85.5776 3.875 85.4609 3.625C85.3443 3.35833 85.1693 3.16667 84.9359 3.05C84.7193 2.93333 84.4109 2.875 84.0109 2.875H80.2609V8.825H86.1609V10.525H80.2609V17.275H84.7359C85.1026 17.275 85.4026 17.2 85.6359 17.05C85.8693 16.9 86.0526 16.6917 86.1859 16.425C86.3359 16.1583 86.4359 15.8417 86.4859 15.475L86.6859 14.225H88.7359L88.5609 19H72.9859ZM89.6061 19V17.475H89.7561C90.1561 17.475 90.5061 17.3917 90.8061 17.225C91.1061 17.0583 91.3727 16.8417 91.6061 16.575C91.8561 16.3083 92.1061 16.025 92.3561 15.725L96.8811 10.225L92.7561 4C92.5727 3.71667 92.3977 3.48333 92.2311 3.3C92.0811 3.1 91.8811 2.95 91.6311 2.85C91.3811 2.73333 91.0394 2.675 90.6061 2.675H90.2811V1.15H99.6561V2.675H99.5061C98.9394 2.675 98.5561 2.75833 98.3561 2.925C98.1727 3.09167 98.0811 3.275 98.0811 3.475C98.0811 3.64167 98.1477 3.85833 98.2811 4.125C98.4311 4.39167 98.5894 4.64167 98.7561 4.875L100.706 7.575L102.731 4.925C102.864 4.74167 103.014 4.5 103.181 4.2C103.364 3.88333 103.456 3.61667 103.456 3.4C103.456 3.1 103.314 2.90833 103.031 2.825C102.764 2.725 102.439 2.675 102.056 2.675H101.931V1.15H108.056V2.675H107.831C107.514 2.675 107.231 2.73333 106.981 2.85C106.731 2.96667 106.481 3.15833 106.231 3.425C105.981 3.675 105.689 4.025 105.356 4.475L101.731 9.225L106.331 16.15C106.564 16.4833 106.789 16.75 107.006 16.95C107.239 17.1333 107.464 17.2667 107.681 17.35C107.914 17.4333 108.131 17.475 108.331 17.475H108.656V19H99.3061V17.475H99.4311C99.9311 17.475 100.306 17.4083 100.556 17.275C100.806 17.125 100.931 16.9167 100.931 16.65C100.931 16.4667 100.889 16.2667 100.806 16.05C100.723 15.8167 100.489 15.4417 100.106 14.925L97.9311 11.825L95.2811 15.125C95.1811 15.2583 95.0811 15.4083 94.9811 15.575C94.8811 15.725 94.7977 15.8833 94.7311 16.05C94.6644 16.2167 94.6311 16.3917 94.6311 16.575C94.6311 16.8417 94.7311 17.0583 94.9311 17.225C95.1311 17.3917 95.5061 17.475 96.0561 17.475H96.1561V19H89.6061ZM109.485 19V17.475H110.76C110.993 17.475 111.185 17.425 111.335 17.325C111.485 17.2083 111.593 17.0583 111.66 16.875C111.743 16.6917 111.785 16.4833 111.785 16.25V4.025C111.785 3.625 111.735 3.33333 111.635 3.15C111.535 2.95 111.402 2.825 111.235 2.775C111.068 2.70833 110.893 2.675 110.71 2.675H109.485V1.15H124.31L124.385 5.925H122.31L122.185 4.675C122.152 4.225 122.077 3.875 121.96 3.625C121.843 3.35833 121.668 3.16667 121.435 3.05C121.218 2.93333 120.91 2.875 120.51 2.875H116.76V8.825H122.66V10.525H116.76V17.275H121.235C121.602 17.275 121.902 17.2 122.135 17.05C122.368 16.9 122.552 16.6917 122.685 16.425C122.835 16.1583 122.935 15.8417 122.985 15.475L123.185 14.225H125.235L125.06 19H109.485ZM126.355 19V17.475H127.305C127.522 17.475 127.73 17.45 127.93 17.4C128.13 17.3333 128.297 17.2 128.43 17C128.58 16.8 128.655 16.5 128.655 16.1V4.075C128.655 3.65833 128.572 3.35833 128.405 3.175C128.255 2.975 128.072 2.84167 127.855 2.775C127.655 2.70833 127.472 2.675 127.305 2.675H126.355V1.15H135.38C137.247 1.15 138.73 1.35 139.83 1.75C140.93 2.13333 141.713 2.68333 142.18 3.4C142.663 4.1 142.905 4.925 142.905 5.875C142.905 6.825 142.738 7.60833 142.405 8.225C142.088 8.84167 141.663 9.325 141.13 9.675C140.597 10.025 140.005 10.2917 139.355 10.475L142.205 15.3C142.438 15.6833 142.647 16.0167 142.83 16.3C143.013 16.5667 143.188 16.7917 143.355 16.975C143.538 17.1417 143.722 17.2667 143.905 17.35C144.088 17.4333 144.28 17.475 144.48 17.475H144.655V19H143.48C142.763 19 142.097 18.975 141.48 18.925C140.863 18.8583 140.305 18.75 139.805 18.6C139.305 18.4333 138.872 18.2 138.505 17.9C138.138 17.6 137.838 17.2167 137.605 16.75L134.98 11.35H133.655V16.1C133.655 16.5 133.705 16.8 133.805 17C133.905 17.2 134.047 17.3333 134.23 17.4C134.43 17.45 134.647 17.475 134.88 17.475H135.48V19H126.355ZM134.78 9.7C135.43 9.7 135.963 9.575 136.38 9.325C136.797 9.05833 137.097 8.66667 137.28 8.15C137.48 7.61667 137.58 6.95833 137.58 6.175C137.58 5.375 137.472 4.73333 137.255 4.25C137.038 3.75 136.713 3.39167 136.28 3.175C135.863 2.94167 135.347 2.825 134.73 2.825H133.655V9.7H134.78ZM154.615 19.25C152.598 19.25 150.915 18.8667 149.565 18.1C148.215 17.3333 147.198 16.2667 146.515 14.9C145.848 13.5167 145.515 11.9 145.515 10.05C145.515 8.25 145.857 6.66667 146.54 5.3C147.223 3.91667 148.24 2.84167 149.59 2.075C150.94 1.29167 152.607 0.899999 154.59 0.899999C155.973 0.899999 157.115 1.03333 158.015 1.3C158.932 1.56667 159.615 1.925 160.065 2.375C160.532 2.825 160.765 3.325 160.765 3.875C160.765 4.55833 160.448 5.14167 159.815 5.625C159.198 6.10833 158.24 6.35 156.94 6.35C156.94 5.78333 156.857 5.225 156.69 4.675C156.54 4.10833 156.273 3.64167 155.89 3.275C155.507 2.89167 154.982 2.7 154.315 2.7C153.415 2.7 152.707 2.99167 152.19 3.575C151.673 4.14167 151.307 4.975 151.09 6.075C150.873 7.15833 150.765 8.48333 150.765 10.05C150.765 11.7333 150.915 13.0917 151.215 14.125C151.515 15.1417 152.007 15.875 152.69 16.325C153.39 16.775 154.315 17 155.465 17C156.365 17 157.123 16.8667 157.74 16.6C158.373 16.3167 158.907 15.975 159.34 15.575C159.773 15.175 160.132 14.7917 160.415 14.425C160.532 14.5417 160.623 14.7167 160.69 14.95C160.757 15.1833 160.79 15.3917 160.79 15.575C160.79 15.9583 160.698 16.3667 160.515 16.8C160.348 17.2167 160.04 17.6167 159.59 18C159.14 18.3667 158.507 18.6667 157.69 18.9C156.89 19.1333 155.865 19.25 154.615 19.25ZM162.39 19V17.475H163.715C163.865 17.475 164.015 17.4333 164.165 17.35C164.315 17.25 164.44 17.1167 164.54 16.95C164.64 16.7667 164.69 16.55 164.69 16.3V4C164.69 3.7 164.64 3.45 164.54 3.25C164.44 3.05 164.315 2.90833 164.165 2.825C164.015 2.725 163.865 2.675 163.715 2.675H162.39V1.15H172.015V2.675H170.64C170.44 2.675 170.265 2.725 170.115 2.825C169.982 2.925 169.874 3.075 169.79 3.275C169.724 3.45833 169.69 3.70833 169.69 4.025V16.25C169.69 16.4833 169.732 16.7 169.815 16.9C169.915 17.0833 170.032 17.225 170.165 17.325C170.315 17.425 170.474 17.475 170.64 17.475H172.015V19H162.39ZM179.61 19.25C178.26 19.25 177.16 19.1333 176.31 18.9C175.46 18.6667 174.801 18.3667 174.335 18C173.868 17.6333 173.543 17.25 173.36 16.85C173.193 16.45 173.11 16.0917 173.11 15.775C173.11 15.025 173.268 14.45 173.585 14.05C173.918 13.65 174.335 13.375 174.835 13.225C175.335 13.0583 175.868 12.975 176.435 12.975C176.435 14.1083 176.618 15.0083 176.985 15.675C177.368 16.3417 177.843 16.825 178.41 17.125C178.993 17.4083 179.576 17.55 180.16 17.55C181.043 17.55 181.718 17.3 182.185 16.8C182.668 16.2833 182.91 15.7417 182.91 15.175C182.91 14.6417 182.726 14.1833 182.36 13.8C182.01 13.4167 181.501 13.0583 180.835 12.725C180.185 12.3917 179.41 12.0417 178.51 11.675C177.56 11.2917 176.768 10.8917 176.135 10.475C175.518 10.0417 175.026 9.59167 174.66 9.125C174.293 8.65833 174.035 8.16667 173.885 7.65C173.735 7.13333 173.66 6.6 173.66 6.05C173.66 4.98333 173.951 4.06667 174.535 3.3C175.135 2.53333 175.943 1.94167 176.96 1.525C177.976 1.10833 179.118 0.899999 180.385 0.899999C181.735 0.899999 182.835 1.05833 183.685 1.375C184.551 1.69167 185.185 2.09167 185.585 2.575C185.985 3.04167 186.185 3.53333 186.185 4.05C186.185 4.66667 185.91 5.19167 185.36 5.625C184.826 6.05833 183.893 6.275 182.56 6.275C182.56 5.70833 182.451 5.15 182.235 4.6C182.018 4.03333 181.701 3.56667 181.285 3.2C180.885 2.81667 180.385 2.625 179.785 2.625C179.385 2.625 179.018 2.69167 178.685 2.825C178.351 2.95833 178.085 3.16667 177.885 3.45C177.685 3.71667 177.585 4.075 177.585 4.525C177.585 4.85833 177.693 5.2 177.91 5.55C178.126 5.9 178.551 6.28333 179.185 6.7C179.835 7.1 180.776 7.55 182.01 8.05C183.276 8.55 184.26 9.09167 184.96 9.675C185.676 10.2417 186.176 10.8583 186.46 11.525C186.743 12.175 186.885 12.9 186.885 13.7C186.885 14.7833 186.585 15.7417 185.985 16.575C185.401 17.4083 184.56 18.0667 183.46 18.55C182.376 19.0167 181.093 19.25 179.61 19.25ZM188.171 19V17.475H189.446C189.68 17.475 189.871 17.425 190.021 17.325C190.171 17.2083 190.28 17.0583 190.346 16.875C190.43 16.6917 190.471 16.4833 190.471 16.25V4.025C190.471 3.625 190.421 3.33333 190.321 3.15C190.221 2.95 190.088 2.825 189.921 2.775C189.755 2.70833 189.58 2.675 189.396 2.675H188.171V1.15H202.996L203.071 5.925H200.996L200.871 4.675C200.838 4.225 200.763 3.875 200.646 3.625C200.53 3.35833 200.355 3.16667 200.121 3.05C199.905 2.93333 199.596 2.875 199.196 2.875H195.446V8.825H201.346V10.525H195.446V17.275H199.921C200.288 17.275 200.588 17.2 200.821 17.05C201.055 16.9 201.238 16.6917 201.371 16.425C201.521 16.1583 201.621 15.8417 201.671 15.475L201.871 14.225H203.921L203.746 19H188.171Z" fill="#46448D"/>
</svg>
