<svg width="24" height="24" viewBox="0 0 24 24" fill="none" xmlns="http://www.w3.org/2000/svg">
<rect width="24" height="24" rx="5" fill="#46448D"/>
<path fill-rule="evenodd" clip-rule="evenodd" d="M18.9583 3.45779C18.9638 3.39236 18.9822 3.32866 19.0124 3.27033C19.0426 3.212 19.0839 3.16018 19.1341 3.11784C19.1843 3.07549 19.2423 3.04345 19.3049 3.02354C19.3675 3.00363 19.4334 2.99624 19.4988 3.00179L20.4953 3.08679C20.6274 3.09799 20.7496 3.16116 20.8351 3.26241C20.9206 3.36367 20.9624 3.49473 20.9513 3.62679L20.7868 5.56129C20.8587 5.61145 20.9162 5.67965 20.9535 5.75903C20.9907 5.83842 21.0064 5.92621 20.999 6.01359C20.9916 6.10097 20.9614 6.18487 20.9113 6.25687C20.8613 6.32887 20.7931 6.38644 20.7138 6.42379L20.5388 8.48479C20.5333 8.55022 20.5149 8.61392 20.4847 8.67225C20.4546 8.73058 20.4132 8.7824 20.363 8.82474C20.3128 8.86709 20.2548 8.89913 20.1922 8.91904C20.1296 8.93895 20.0637 8.94634 19.9983 8.94079L19.0018 8.85579C18.8698 8.84459 18.7475 8.78142 18.662 8.68017C18.5765 8.57891 18.5347 8.44785 18.5458 8.31579L18.7308 6.14279C18.4758 6.09729 18.2258 6.05379 17.9788 6.01279C17.9263 6.83779 17.7738 8.23729 17.4928 9.55529C17.3128 10.3953 17.0668 11.2723 16.7248 11.9623C16.5548 12.3063 16.3338 12.6583 16.0413 12.9363C15.7828 13.1823 15.4328 13.3998 15.0008 13.4568V15.6228C15.0552 15.6033 15.1095 15.5838 15.1638 15.5643L15.2753 15.5243C15.7778 15.3443 16.2883 15.1613 16.6783 15.0628C16.8673 15.0148 17.1538 14.9523 17.4348 14.9773C17.6747 14.9957 17.9035 15.0855 18.0918 15.2353C18.2205 15.3401 18.324 15.4725 18.3948 15.6226C18.4656 15.7727 18.5018 15.9368 18.5008 16.1028C18.5008 16.5143 18.3603 17.5728 18.2408 18.4183C18.1671 18.9402 18.0905 19.4617 18.0108 19.9828L17.9948 20.0873L17.9903 20.1148L17.9893 20.1218V20.1243L17.0008 19.9713L17.9888 20.1248C17.9505 20.3671 17.8245 20.5868 17.6347 20.7422C17.4449 20.8976 17.2046 20.9779 16.9596 20.9677C16.7145 20.9575 16.4817 20.8576 16.3055 20.687C16.1293 20.5164 16.0219 20.2869 16.0038 20.0423L15.8188 17.4543C15.2633 17.6533 14.6148 17.8828 13.9743 18.0628C13.3378 18.2418 12.6393 18.3928 12.0008 18.3928C11.3623 18.3928 10.6638 18.2418 10.0273 18.0628C9.39231 17.8843 8.74931 17.6568 8.19731 17.4593L7.99781 20.0478C7.97882 20.2922 7.87074 20.5211 7.69409 20.691C7.51743 20.861 7.28451 20.9601 7.03957 20.9696C6.79463 20.9791 6.55473 20.8983 6.36544 20.7426C6.17615 20.5868 6.05066 20.367 6.0128 20.1248L7.00081 19.9713L6.0128 20.1243L6.01231 20.1218L6.01131 20.1148L6.00681 20.0873L5.99081 19.9823C5.9108 19.4615 5.83413 18.9401 5.76081 18.4183C5.64131 17.5728 5.50081 16.5143 5.50081 16.1033C5.50081 15.8083 5.61581 15.4743 5.90981 15.2353C6.09807 15.0855 6.32693 14.9956 6.56681 14.9773C6.84781 14.9523 7.13431 15.0148 7.32381 15.0623C7.71381 15.1613 8.22381 15.3443 8.72631 15.5243L8.83781 15.5643L9.00081 15.6228V13.4593C8.05581 13.3538 7.48331 12.5878 7.16781 11.9783C6.80181 11.2723 6.56281 10.3798 6.40081 9.53529C6.14681 8.21579 6.04681 6.83029 6.01431 6.01929C5.77031 6.05929 5.52281 6.10179 5.27131 6.14629L5.45631 8.31579C5.46738 8.44793 5.4255 8.57907 5.33989 8.68033C5.25428 8.7816 5.13195 8.84472 4.99981 8.85579L4.00381 8.94079C3.93837 8.94634 3.87249 8.93895 3.80991 8.91904C3.74734 8.89913 3.6893 8.86709 3.63911 8.82474C3.58892 8.7824 3.54756 8.73058 3.51739 8.67225C3.48723 8.61392 3.46885 8.55022 3.46331 8.48479L3.28831 6.42379C3.2087 6.38671 3.14029 6.32928 3.08998 6.25729C3.03968 6.18531 3.00926 6.10133 3.0018 6.01382C2.99435 5.92632 3.01012 5.8384 3.04752 5.75894C3.08492 5.67949 3.14262 5.61131 3.21481 5.56129L3.05031 3.62679C3.03923 3.49473 3.08104 3.36367 3.16654 3.26241C3.25205 3.16116 3.37425 3.09799 3.50631 3.08679L4.50281 3.00179C4.63487 2.99072 4.76593 3.03252 4.86719 3.11803C4.96844 3.20353 5.03161 3.32574 5.04281 3.45779L5.18631 5.14579C5.49872 5.09084 5.81157 5.03833 6.12481 4.98829C6.19954 4.85276 6.30472 4.73642 6.43206 4.64845C6.5594 4.56047 6.70542 4.50325 6.85863 4.48129C7.01184 4.45934 7.16805 4.47324 7.31497 4.52192C7.46189 4.57059 7.59551 4.6527 7.70531 4.76179C10.7438 4.37829 13.3163 4.37879 16.3018 4.75679C16.4116 4.64938 16.5447 4.56869 16.6907 4.52101C16.8367 4.47332 16.9917 4.45991 17.1437 4.48182C17.2958 4.50372 17.4407 4.56035 17.5673 4.64732C17.6939 4.73429 17.7988 4.84925 17.8738 4.98329C18.1818 5.03229 18.4953 5.08529 18.8153 5.14229L18.9583 3.45729V3.45779ZM15.5368 9.13779C15.7695 8.01253 15.9219 6.87216 15.9928 5.72529C13.2273 5.38879 10.8203 5.38879 8.00531 5.73229C8.02431 6.39829 8.10931 7.82929 8.36481 9.15729C8.51481 9.93779 8.70981 10.6078 8.94331 11.0583C9.10231 11.3648 9.21131 11.4508 9.24731 11.4713H14.6793C14.7373 11.4108 14.8268 11.2883 14.9328 11.0743C15.1638 10.6078 15.3688 9.92229 15.5368 9.13729V9.13779ZM9.75081 8.22129C9.75081 8.81803 9.98786 9.39032 10.4098 9.81228C10.8318 10.2342 11.4041 10.4713 12.0008 10.4713C12.5975 10.4713 13.1698 10.2342 13.5918 9.81228C14.0138 9.39032 14.2508 8.81803 14.2508 8.22129C14.2508 7.62455 14.0138 7.05226 13.5918 6.6303C13.1698 6.20834 12.5975 5.97129 12.0008 5.97129C11.4041 5.97129 10.8318 6.20834 10.4098 6.6303C9.98786 7.05226 9.75081 7.62455 9.75081 8.22129V8.22129Z" fill="#F5F5F5"/>
</svg>
