<svg width="192" height="192" viewBox="0 0 192 192" fill="none" xmlns="http://www.w3.org/2000/svg">
<rect width="192" height="192" rx="40" fill="#46448D"/>
<path fill-rule="evenodd" clip-rule="evenodd" d="M151.666 27.6623C151.711 27.1389 151.858 26.6293 152.099 26.1626C152.34 25.696 152.671 25.2815 153.073 24.9427C153.474 24.6039 153.939 24.3476 154.439 24.1883C154.94 24.029 155.467 23.9699 155.99 24.0143L163.962 24.6943C165.019 24.7839 165.997 25.2893 166.681 26.0993C167.365 26.9093 167.699 27.9578 167.61 29.0143L166.294 44.4903C166.87 44.8916 167.33 45.4372 167.628 46.0723C167.926 46.7074 168.051 47.4097 167.992 48.1087C167.933 48.8078 167.691 49.479 167.291 50.055C166.89 50.631 166.345 51.0915 165.71 51.3903L164.31 67.8783C164.266 68.4018 164.119 68.9114 163.878 69.378C163.636 69.8447 163.306 70.2592 162.904 70.598C162.503 70.9367 162.038 71.1931 161.538 71.3523C161.037 71.5116 160.51 71.5708 159.986 71.5263L152.014 70.8463C150.958 70.7567 149.98 70.2514 149.296 69.4414C148.612 68.6313 148.278 67.5828 148.366 66.5263L149.846 49.1423C147.806 48.7783 145.806 48.4303 143.83 48.1023C143.41 54.7023 142.19 65.8983 139.942 76.4423C138.502 83.1623 136.534 90.1783 133.798 95.6983C132.438 98.4503 130.67 101.266 128.33 103.49C126.262 105.458 123.462 107.198 120.006 107.654V124.982C120.441 124.827 120.876 124.671 121.31 124.514L122.202 124.194C126.222 122.754 130.306 121.29 133.426 120.502C134.938 120.118 137.23 119.618 139.478 119.818C141.397 119.965 143.228 120.684 144.734 121.882C145.764 122.721 146.592 123.78 147.158 124.981C147.725 126.182 148.014 127.495 148.006 128.822C148.006 132.114 146.882 140.582 145.926 147.346C145.337 151.522 144.724 155.694 144.086 159.862L143.958 160.698L143.922 160.918L143.914 160.974V160.994L136.006 159.77L143.91 160.998C143.604 162.937 142.596 164.694 141.077 165.938C139.559 167.181 137.637 167.823 135.676 167.742C133.716 167.66 131.854 166.861 130.444 165.496C129.034 164.131 128.175 162.295 128.03 160.338L126.55 139.634C122.106 141.226 116.918 143.062 111.794 144.502C106.702 145.934 101.114 147.142 96.0064 147.142C90.8984 147.142 85.3104 145.934 80.2184 144.502C75.1384 143.074 69.9944 141.254 65.5784 139.674L63.9824 160.382C63.8306 162.337 62.9659 164.169 61.5527 165.528C60.1394 166.888 58.2761 167.681 56.3166 167.757C54.357 167.833 52.4378 167.186 50.9235 165.941C49.4092 164.695 48.4053 162.936 48.1024 160.998L56.0064 159.77L48.1024 160.994L48.0984 160.974L48.0904 160.918L48.0545 160.698L47.9264 159.858C47.2864 155.692 46.6731 151.521 46.0864 147.346C45.1304 140.582 44.0064 132.114 44.0064 128.826C44.0064 126.466 44.9265 123.794 47.2785 121.882C48.7845 120.684 50.6154 119.965 52.5344 119.818C54.7824 119.618 57.0744 120.118 58.5904 120.498C61.7104 121.29 65.7904 122.754 69.8104 124.194L70.7024 124.514L72.0064 124.982V107.674C64.4464 106.83 59.8664 100.702 57.3424 95.8263C54.4144 90.1783 52.5024 83.0383 51.2064 76.2823C49.1744 65.7263 48.3744 54.6423 48.1144 48.1543C46.1624 48.4743 44.1824 48.8143 42.1704 49.1703L43.6504 66.5263C43.739 67.5835 43.404 68.6325 42.7191 69.4427C42.0343 70.2528 41.0556 70.7577 39.9985 70.8463L32.0305 71.5263C31.507 71.5708 30.9799 71.5116 30.4793 71.3523C29.9787 71.1931 29.5144 70.9367 29.1129 70.598C28.7113 70.2592 28.3805 69.8447 28.1391 69.378C27.8978 68.9114 27.7508 68.4018 27.7065 67.8783L26.3065 51.3903C25.6696 51.0937 25.1223 50.6342 24.7199 50.0584C24.3174 49.4825 24.0741 48.8106 24.0144 48.1106C23.9548 47.4106 24.0809 46.7072 24.3801 46.0716C24.6793 45.4359 25.141 44.8905 25.7185 44.4903L24.4025 29.0143C24.3138 27.9578 24.6483 26.9093 25.3323 26.0993C26.0164 25.2893 26.994 24.7839 28.0505 24.6943L36.0225 24.0143C37.079 23.9257 38.1274 24.2602 38.9375 24.9442C39.7475 25.6283 40.2529 26.6059 40.3424 27.6623L41.4904 41.1663C43.9898 40.7267 46.4925 40.3067 48.9985 39.9063C49.5964 38.8221 50.4378 37.8914 51.4565 37.1876C52.4752 36.4837 53.6434 36.026 54.869 35.8503C56.0947 35.6747 57.3444 35.7859 58.5198 36.1753C59.6952 36.5647 60.7641 37.2216 61.6424 38.0943C85.9504 35.0263 106.53 35.0303 130.414 38.0543C131.293 37.195 132.357 36.5496 133.525 36.1681C134.693 35.7866 135.934 35.6793 137.15 35.8545C138.366 36.0298 139.526 36.4828 140.539 37.1786C141.551 37.8743 142.39 38.794 142.99 39.8663C145.454 40.2583 147.962 40.6823 150.522 41.1383L151.666 27.6583V27.6623ZM124.294 73.1023C126.156 64.1003 127.375 54.9773 127.942 45.8023C105.818 43.1103 86.5625 43.1103 64.0424 45.8583C64.1944 51.1863 64.8744 62.6343 66.9184 73.2583C68.1184 79.5023 69.6784 84.8623 71.5464 88.4663C72.8184 90.9183 73.6904 91.6063 73.9784 91.7703H117.434C117.898 91.2863 118.614 90.3063 119.462 88.5943C121.31 84.8623 122.95 79.3783 124.294 73.0983V73.1023ZM78.0064 65.7703C78.0064 70.5442 79.9029 75.1226 83.2785 78.4982C86.6542 81.8739 91.2326 83.7703 96.0064 83.7703C100.78 83.7703 105.359 81.8739 108.734 78.4982C112.11 75.1226 114.006 70.5442 114.006 65.7703C114.006 60.9964 112.11 56.4181 108.734 53.0424C105.359 49.6668 100.78 47.7703 96.0064 47.7703C91.2326 47.7703 86.6542 49.6668 83.2785 53.0424C79.9029 56.4181 78.0064 60.9964 78.0064 65.7703V65.7703Z" fill="#F5F5F5"/>
</svg>
