<svg width="512" height="512" viewBox="0 0 512 512" fill="none" xmlns="http://www.w3.org/2000/svg">
<rect width="512" height="512" rx="106.667" fill="#46448D"/>
<path fill-rule="evenodd" clip-rule="evenodd" d="M404.444 73.7662C404.562 72.3703 404.954 71.0114 405.598 69.767C406.241 68.5226 407.124 67.4172 408.194 66.5139C409.265 65.6105 410.503 64.9269 411.838 64.5022C413.173 64.0774 414.579 63.9197 415.975 64.0382L437.233 65.8515C440.05 66.0905 442.657 67.438 444.482 69.5981C446.306 71.7582 447.198 74.5542 446.961 77.3715L443.452 118.641C444.986 119.711 446.213 121.166 447.007 122.859C447.802 124.553 448.137 126.426 447.979 128.29C447.822 130.154 447.176 131.944 446.108 133.48C445.04 135.016 443.587 136.244 441.895 137.041L438.161 181.009C438.043 182.405 437.651 183.764 437.007 185.008C436.364 186.252 435.482 187.358 434.411 188.261C433.34 189.165 432.102 189.848 430.767 190.273C429.432 190.698 428.026 190.855 426.631 190.737L405.372 188.924C402.555 188.685 399.948 187.337 398.124 185.177C396.299 183.017 395.408 180.221 395.644 177.404L399.591 131.046C394.151 130.076 388.817 129.148 383.548 128.273C382.428 145.873 379.175 175.729 373.18 203.846C369.34 221.766 364.092 240.476 356.796 255.196C353.169 262.534 348.455 270.044 342.215 275.974C336.7 281.222 329.233 285.862 320.017 287.078V333.286C321.177 332.871 322.336 332.455 323.495 332.038L325.873 331.185C336.593 327.345 347.484 323.441 355.804 321.34C359.836 320.316 365.948 318.982 371.943 319.516C377.06 319.907 381.942 321.825 385.959 325.02C388.703 327.256 390.912 330.08 392.422 333.282C393.932 336.485 394.705 339.985 394.684 343.526C394.684 352.305 391.687 374.886 389.137 392.924C387.565 404.058 385.93 415.184 384.231 426.299L383.889 428.529L383.793 429.115L383.772 429.265V429.318L362.684 426.054L383.761 429.329C382.944 434.497 380.255 439.185 376.207 442.501C372.158 445.816 367.032 447.528 361.804 447.311C356.576 447.094 351.609 444.962 347.85 441.322C344.091 437.682 341.8 432.787 341.415 427.569L337.468 372.358C325.617 376.604 311.783 381.5 298.119 385.34C284.54 389.158 269.639 392.38 256.017 392.38C242.396 392.38 227.495 389.158 213.916 385.34C200.369 381.532 186.652 376.678 174.876 372.465L170.62 427.686C170.215 432.9 167.909 437.783 164.141 441.409C160.372 445.034 155.403 447.149 150.178 447.351C144.952 447.554 139.834 445.831 135.796 442.508C131.758 439.185 129.081 434.495 128.273 429.329L149.351 426.054L128.273 429.318L128.263 429.265L128.241 429.115L128.145 428.529L127.804 426.289C126.097 415.178 124.462 404.056 122.897 392.924C120.348 374.886 117.351 352.305 117.351 343.537C117.351 337.244 119.804 330.118 126.076 325.02C130.092 321.824 134.974 319.907 140.092 319.516C146.087 318.982 152.199 320.316 156.241 321.329C164.561 323.441 175.441 327.345 186.161 331.185L188.54 332.038L192.017 333.286V287.132C171.857 284.881 159.644 268.54 152.913 255.537C145.105 240.476 140.007 221.436 136.551 203.42C131.132 175.27 128.999 145.713 128.305 128.412C123.1 129.265 117.82 130.172 112.455 131.121L116.401 177.404C116.637 180.223 115.744 183.02 113.918 185.18C112.091 187.341 109.482 188.687 106.663 188.924L85.4146 190.737C84.0187 190.855 82.6131 190.698 81.2782 190.273C79.9432 189.848 78.7051 189.165 77.6343 188.261C76.5636 187.358 75.6812 186.252 75.0378 185.008C74.3943 183.764 74.0022 182.405 73.8839 181.009L70.1506 137.041C68.4523 136.25 66.9928 135.025 65.9197 133.489C64.8465 131.953 64.1976 130.162 64.0385 128.295C63.8794 126.428 64.2158 124.553 65.0137 122.857C65.8116 121.162 67.0426 119.708 68.5826 118.641L65.0732 77.3715C64.8369 74.5542 65.7288 71.7582 67.5529 69.5981C69.377 67.438 71.9841 66.0905 74.8013 65.8515L96.0599 64.0382C98.8773 63.8019 101.673 64.6938 103.833 66.5179C105.993 68.342 107.341 70.9491 107.58 73.7662L110.641 109.777C117.306 108.605 123.98 107.484 130.663 106.417C132.257 103.526 134.501 101.044 137.217 99.1668C139.934 97.29 143.049 96.0693 146.317 95.6009C149.586 95.1325 152.918 95.4292 156.053 96.4676C159.187 97.5059 162.038 99.2577 164.38 101.585C229.201 93.4035 284.081 93.4142 347.772 101.478C350.114 99.1867 352.953 97.4655 356.068 96.4482C359.183 95.4309 362.49 95.1448 365.733 95.6121C368.977 96.0794 372.069 97.2875 374.77 99.1428C377.471 100.998 379.708 103.451 381.308 106.31C387.879 107.356 394.567 108.486 401.393 109.702L404.444 73.7555V73.7662ZM331.452 194.94C336.415 170.934 339.666 146.606 341.18 122.14C282.183 114.961 230.833 114.961 170.78 122.289C171.185 136.497 172.999 167.025 178.449 195.356C181.649 212.006 185.809 226.3 190.791 235.91C194.183 242.449 196.508 244.284 197.276 244.721H313.159C314.396 243.43 316.305 240.817 318.567 236.252C323.495 226.3 327.868 211.676 331.452 194.929V194.94ZM208.017 175.388C208.017 188.118 213.074 200.327 222.076 209.329C231.078 218.33 243.287 223.388 256.017 223.388C268.748 223.388 280.957 218.33 289.958 209.329C298.96 200.327 304.017 188.118 304.017 175.388C304.017 162.657 298.96 150.448 289.958 141.446C280.957 132.445 268.748 127.388 256.017 127.388C243.287 127.388 231.078 132.445 222.076 141.446C213.074 150.448 208.017 162.657 208.017 175.388V175.388Z" fill="#F5F5F5"/>
</svg>
